<svg width="145" height="55" viewBox="0 0 145 55" fill="none" xmlns="http://www.w3.org/2000/svg">
<path d="M87.85 40V22.5H94.975C96.8417 22.5 98.475 22.875 99.875 23.625C101.292 24.3583 102.392 25.3833 103.175 26.7C103.958 28.0167 104.35 29.5333 104.35 31.25C104.35 32.9667 103.958 34.4833 103.175 35.8C102.392 37.1167 101.292 38.15 99.875 38.9C98.475 39.6333 96.8417 40 94.975 40H87.85ZM89.7 38.4H94.875C96.425 38.4 97.7667 38.1 98.9 37.5C100.05 36.8833 100.942 36.0417 101.575 34.975C102.208 33.8917 102.525 32.65 102.525 31.25C102.525 29.8333 102.208 28.5917 101.575 27.525C100.942 26.4583 100.05 25.625 98.9 25.025C97.7667 24.4083 96.425 24.1 94.875 24.1H89.7V38.4ZM110.154 30.325H119.404V31.9H110.154V30.325ZM110.354 38.4H120.879V40H108.504V22.5H120.504V24.1H110.354V38.4ZM129.959 40L122.209 22.5H124.209L131.459 38.975H130.359L137.659 22.5H139.534L131.784 40H129.959Z" fill="#0D0D0D"/>
<g clip-path="url(#clip0_28_106)">
<path d="M33.143 18.5608C32.5613 17.2683 31.815 16.2498 30.2348 16.2498C29.6841 16.2498 29.2105 16.6324 29.0612 17.1649C27.8362 21.5285 23.3941 24.584 21.0419 28.8184C20.7742 29.201 20.3418 30.0334 20.6661 30.4211C21.0882 30.9226 21.4639 31.3776 21.8139 31.8016C24.3258 31.2949 26.7553 30.8141 29.0098 30.3022C30.2194 30.0489 31.429 29.8007 32.6334 29.5526C32.4687 28.0429 32.3091 26.5177 32.2319 24.9666C32.0724 22.79 34.0592 20.5927 33.143 18.566V18.5608Z" fill="#0D0D0D"/>
<path d="M6.18182 43.9462C3.94277 47.1414 6.39285 48.4701 3.32511 50.8897C1.61108 52.2391 1.03459 53.6506 1.06033 54.0487C1.09636 54.5915 1.54931 55.0103 2.08977 55.0103H11.5555C13.2438 55.0103 21.15 54.6381 23.4971 53.6402C24.5368 53.2008 27.8928 51.4067 29.3804 52.9009C29.6583 53.1801 29.8385 53.4231 29.9569 53.6454C30.3995 54.4675 31.2231 55.0103 32.1547 55.0103C32.1547 55.0103 51.2818 55.0103 53.1966 54.2917C55.1113 53.573 52.1877 50.6364 52.5738 49.1009C53.0679 47.1465 59.2188 45.5128 60.2071 44.7321C61.1954 43.9514 60.6652 41.2888 57.7313 43.1707C56.1048 44.2151 52.9958 46.2573 52.4657 43.9876C52.1877 42.7881 53.876 41.2422 54.4165 40.5443C55.2966 39.4068 55.2709 38.197 54.3393 37.7059C53.1348 37.0648 51.6987 38.4142 50.7311 37.9178C48.9141 36.9924 51.1789 33.8696 49.8097 29.1803C49.4391 27.9084 50.1597 26.2902 51.2921 24.7288C46.6647 26.4711 41.8367 27.6292 36.9365 28.6684C36.9468 32.7167 37.3225 36.8838 36.8438 40.9734C36.6277 43.2121 37.3792 47.5498 37.2196 49.7885C37.1681 50.8742 36.1438 51.5153 35.3923 51.324C34.2651 51.0655 33.457 49.5972 33.2974 48.253C33.0812 45.3732 33.0812 40.0789 33.1378 37.1992C33.2048 34.6917 32.9114 32.1531 32.6283 29.5629C31.4238 29.811 30.2142 30.0592 29.0046 30.3125C26.7501 30.8244 24.3155 31.3052 21.8088 31.8119C23.4662 33.8386 24.4596 35.219 26.1016 37.8144C27.7641 40.4409 30.0752 42.0384 30.7753 44.9854C30.8834 45.4973 30.1833 45.6886 29.8076 45.6886C28.248 45.6886 26.6935 47.0948 25.3501 46.3917C22.0765 44.7269 19.8168 41.3973 17.1866 38.0729C17.0785 37.8816 16.4351 37.8144 16.4351 38.3263C16.2755 41.0768 17.1351 43.2534 17.027 46.1332C16.9189 48.4391 15.1843 50.1039 13.2541 48.4391C11.7511 47.2241 11.9673 44.9802 11.3187 43.3827C10.2121 40.5805 10.3305 37.4939 10.2172 34.4952C6.89728 35.4362 3.706 36.5788 0.854439 38.0367C2.48611 39.4947 7.64878 41.8678 6.17667 43.9617L6.18182 43.9462Z" fill="#0D0D0D"/>
<path d="M10.1452 32.9959C9.82091 27.681 9.23413 22.3712 10.1452 17.0563C10.7886 13.6027 11.0665 11.9637 13.3776 9.91634C14.9373 8.51006 17.8403 7.39331 19.5595 8.28774C19.719 8.34978 19.8837 8.73755 19.719 9.18218C18.9161 11.2296 17.0322 12.4445 16.605 14.7504C15.8535 19.1037 16.4454 23.2657 16.4454 27.681C16.4454 27.8723 16.6616 28.1308 16.8211 27.8723C19.3433 24.2221 21.922 21.2183 24.3927 17.2476C24.6346 16.8443 25.0207 16.2136 25.4376 15.5776C25.6589 15.2468 25.628 14.8073 25.3758 14.5023C24.5677 13.5303 24.0015 12.3877 24.3979 11.0021C24.8817 9.27524 26.6009 8.7634 28.1039 8.50489C29.2311 8.37564 30.3583 8.37564 31.4856 8.1223C32.7106 7.95685 33.1018 8.59795 33.1481 8.95469C33.5651 11.8913 38.3571 11.0021 41.1469 10.5574C42.2742 10.3661 47.1074 9.2132 48.6104 9.663C49.3619 9.8543 49.8972 10.3041 49.5215 11.1985C48.3942 14.2696 46.1912 16.7668 43.561 17.8525C43.0257 18.111 38.6763 17.9818 38.1924 19.4553C37.1527 22.3816 36.9365 25.4785 36.9416 28.6529C41.8418 27.6137 46.6699 26.4556 51.2973 24.7133C52.6561 22.8365 54.6018 21.0528 55.9709 20.0705C57.9526 18.6487 58.5291 17.6664 58.0247 17.1597C56.8254 16.317 55.3378 17.656 54.5606 17.4441C53.7834 17.2321 54.3393 15.7638 55.4819 14.7091C57.2835 13.0391 64.3969 11.4053 65.6683 11.0486C66.9397 10.6919 68.0721 9.77157 68 8.9185C67.9279 8.06543 67.3669 7.74488 66.2345 7.74488C64.0521 7.74488 57.2526 11.6845 55.4819 12.1136C54.0562 12.46 53.1708 11.2554 54.8231 10.5368C54.8643 10.5212 54.9055 10.5057 54.9466 10.4902C55.4305 10.3455 58.6372 9.32177 57.8806 7.71386C57.2629 6.40064 55.2452 7.72937 54.9518 7.931C54.926 7.95168 54.8952 7.96719 54.8643 7.9827C53.1142 8.93918 53.2635 8.19468 53.2635 7.13997V3.85176C53.2635 2.86943 52.4966 2.06289 51.5186 2.0267C42.2536 2.01636 23.389 3.25202 22.7353 2.66779C22.1897 2.1818 22.8485 2.13527 23.2449 1.62343C23.4302 1.3856 23.4971 1.05988 23.4096 0.770352C23.1883 0.0517015 22.1588 -0.217146 20.6816 0.186125C18.9161 0.666949 18.9109 1.24601 12.9916 2.05255C12.2247 2.22316 2.36773 2.05255 2.36773 2.05255C1.35887 2.05255 0.545609 2.8746 0.545609 3.88278V9.27007C0.545609 10.8056 2.25963 11.7207 3.52585 10.8573C4.16926 10.4178 4.66854 9.99389 5.18841 9.48722C6.60389 8.10679 7.8032 7.75522 8.48778 8.06543C9.88782 8.70135 8.92529 10.2162 8.1635 10.5523C7.55613 10.8211 6.39286 11.4209 4.41118 12.4704C1.80668 13.8456 1.19931 13.675 0.828706 14.9314C0.808117 14.9986 0.777234 20.6134 0.772087 22.273C0.76694 23.9326 1.7655 23.2398 2.5067 24.4755C3.4435 26.0472 1.25593 27.8361 0.76694 29.3457C0.509578 30.1419 1.40005 31.5069 3.13981 30.5142C4.73545 29.6042 6.18182 32.2203 3.06775 33.213C1.90962 33.5801 1.80668 33.4663 1.0346 34.0609C-0.535308 35.2707 -0.0308804 37.0958 0.663995 37.8299C0.720615 37.8868 0.787529 37.9489 0.85959 38.0161C3.71115 36.5529 6.90758 35.4155 10.2224 34.4745C10.2018 33.9782 10.1812 33.487 10.14 32.9959H10.1452Z" fill="#0D0D0D"/>
</g>
<defs>
<clipPath id="clip0_28_106">
<rect width="68" height="55" fill="white"/>
</clipPath>
</defs>
</svg>
